HIERARCHY
ROOT Hips
{
	OFFSET 0.000000 0.000000 0.000000
	CHANNELS 6 Xposition Yposition Zposition Zrotation Yrotation Xrotation 
	JOINT LHipJoint
	{
		OFFSET 0.000000 0.000000 0.000000
		CHANNELS 3 Zrotation Yrotation Xrotation
		JOINT LeftUpLeg
		{
			OFFSET 1.363060 -1.794630 0.839290
			CHANNELS 3 Zrotation Yrotation Xrotation
			JOINT LeftLeg
			{
				OFFSET 2.448110 -6.726130 0.000000
				CHANNELS 3 Zrotation Yrotation Xrotation
				JOINT LeftFoot
				{
					OFFSET 2.562200 -7.039590 0.000000
					CHANNELS 3 Zrotation Yrotation Xrotation
					JOINT LeftToeBase
					{
						OFFSET 0.157640 -0.433110 2.322550
						CHANNELS 3 Zrotation Yrotation Xrotation
						End Site
						{
							OFFSET 0.000000 0.000000 0.000000
						}
					}
				}
			}
		}
	}
	JOINT RHipJoint
	{
		OFFSET 0.000000 0.000000 0.000000
		CHANNELS 3 Zrotation Yrotation Xrotation
		JOINT RightUpLeg
		{
			OFFSET -1.305520 -1.794630 0.839290
			CHANNELS 3 Zrotation Yrotation Xrotation
			JOINT RightLeg
			{
				OFFSET -2.542530 -6.985550 0.000000
				CHANNELS 3 Zrotation Yrotation Xrotation
				JOINT RightFoot
				{
					OFFSET -2.568260 -7.056230 0.000000
					CHANNELS 3 Zrotation Yrotation Xrotation
					JOINT RightToeBase
					{
						OFFSET -0.164730 -0.452590 2.363150
						CHANNELS 3 Zrotation Yrotation Xrotation
						End Site
						{
							OFFSET 0.000000 0.000000 0.000000
						}
					}
				}
			}
		}
	}
	JOINT LowerBack
	{
		OFFSET 0.000000 0.000000 0.000000
		CHANNELS 3 Zrotation Yrotation Xrotation
		JOINT Spine
		{
			OFFSET 0.028270 2.035590 -0.193380
			CHANNELS 3 Zrotation Yrotation Xrotation
			JOINT Spine1
			{
				OFFSET 0.056720 2.048850 -0.042750
				CHANNELS 3 Zrotation Yrotation Xrotation
				JOINT Neck
				{
					OFFSET 0.000000 0.000000 0.000000
					CHANNELS 3 Zrotation Yrotation Xrotation
					JOINT Neck1
					{
						OFFSET -0.054170 1.746240 0.172020
						CHANNELS 3 Zrotation Yrotation Xrotation
						JOINT Head
						{
							OFFSET 0.104070 1.761360 -0.123970
							CHANNELS 3 Zrotation Yrotation Xrotation
							End Site
							{
								OFFSET 0.000000 0.000000 0.000000
							}
						}
					}
				}
				JOINT LeftShoulder
				{
					OFFSET 0.000000 0.000000 0.000000
					CHANNELS 3 Zrotation Yrotation Xrotation
					JOINT LeftArm
					{
						OFFSET 3.362410 1.200890 -0.311210
						CHANNELS 3 Zrotation Yrotation Xrotation
						JOINT LeftForeArm
						{
							OFFSET 4.983000 -0.000000 -0.000000
							CHANNELS 3 Zrotation Yrotation Xrotation
							JOINT LeftHand
							{
								OFFSET 3.483560 -0.000000 -0.000000
								CHANNELS 3 Zrotation Yrotation Xrotation
								JOINT LeftFingerBase
								{
									OFFSET 0.000000 0.000000 0.000000
									CHANNELS 3 Zrotation Yrotation Xrotation
									JOINT LeftHandIndex1
									{
										OFFSET 0.715260 -0.000000 -0.000000
										CHANNELS 3 Zrotation Yrotation Xrotation
										End Site
										{
											OFFSET 0.000000 0.000000 0.000000
										}
									}
								}
								JOINT LThumb
								{
									OFFSET 0.000000 0.000000 0.000000
									CHANNELS 3 Zrotation Yrotation Xrotation
									End Site
									{
										OFFSET 0.000000 0.000000 0.000000
									}
								}
							}
						}
					}
				}
				JOINT RightShoulder
				{
					OFFSET 0.000000 0.000000 0.000000
					CHANNELS 3 Zrotation Yrotation Xrotation
					JOINT RightArm
					{
						OFFSET -3.136600 1.374050 -0.404650
						CHANNELS 3 Zrotation Yrotation Xrotation
						JOINT RightForeArm
						{
							OFFSET -5.241900 -0.000000 -0.000000
							CHANNELS 3 Zrotation Yrotation Xrotation
							JOINT RightHand
							{
								OFFSET -3.444170 -0.000000 -0.000000
								CHANNELS 3 Zrotation Yrotation Xrotation
								JOINT RightFingerBase
								{
									OFFSET 0.000000 0.000000 0.000000
									CHANNELS 3 Zrotation Yrotation Xrotation
									JOINT RightHandIndex1
									{
										OFFSET -0.622530 -0.000000 -0.000000
										CHANNELS 3 Zrotation Yrotation Xrotation
										End Site
										{
											OFFSET 0.000000 0.000000 0.000000
										}
									}
								}
								JOINT RThumb
								{
									OFFSET 0.000000 0.000000 0.000000
									CHANNELS 3 Zrotation Yrotation Xrotation
									End Site
									{
										OFFSET 0.000000 0.000000 0.000000
									}
								}
							}
						}
					}
				}
			}
		}
	}
}
MOTION
Frames: 11
Frame Time: 0.008333
24.791291 16.098498 -0.293207 -158.082374 -59.037904 175.570804 6.784202 -2.344335 -10.269398 -17.868059 -5.440578 -5.446049 -2.028408 15.818410 59.166690 -9.024358 7.124852 11.622616 -0.896072 6.923054 10.278749 -0.500674 4.211690 -7.484554 23.479272 3.383335 -32.667339 -3.610702 -8.885337 25.062410 3.899049 7.786731 -9.545840 -2.432628 -3.479914 -13.157395 -2.664065 -1.625191 22.783699 4.779721 -1.997772 -8.433915 8.368758 -4.112545 -0.272058 -1.929479 1.164945 -11.408742 8.437237 0.792749 7.570058 -10.163434 9.807384 14.133342 15.509425 0.676156 1.503287 -84.402250 -23.374296 45.229371 132.768950 -61.750935 -114.834655 -11.279302 10.832507 -2.464777 -0.000001 -0.000002 -0.000000 -0.000000 0.000000 -0.000000 0.000000 0.000000 0.000000 -11.698417 5.181792 2.081683 74.392007 25.274783 8.265699 -67.775177 86.514930 -50.694897 2.292426 0.386617 0.097284 0.000000 0.000002 -0.000000 0.000000 -0.000000 0.000000 -0.000000 0.000000 -0.000000 
24.600300 16.007057 -0.448556 -158.769921 -58.712435 175.691917 6.764997 -2.245865 -9.808936 -17.929507 -6.194216 -6.884310 -2.048760 16.614860 62.714142 -9.027114 6.611494 11.924154 -0.763306 5.652711 9.655459 0.176719 3.960637 -7.453639 23.685189 3.451951 -33.331387 -5.408053 -9.969013 28.917770 3.142677 7.759373 -10.376267 -3.685766 -1.461585 -14.242031 -2.863638 -1.737096 22.440446 4.684792 -1.689753 -8.231555 8.316175 -3.840604 -0.183624 -2.013165 1.157160 -11.207349 8.371970 0.790839 7.652302 -10.169404 9.571935 13.670543 15.577155 0.752544 1.545912 -84.515604 -22.101875 45.356738 132.545699 -61.929315 -114.839365 -10.683584 11.053894 -2.467517 -0.000001 -0.000002 -0.000000 -0.000000 0.000000 0.000000 0.000000 -0.000000 0.000000 -11.873940 5.424974 2.204181 74.308296 25.999869 8.220337 -63.394114 86.648480 -46.054541 2.687757 0.862954 0.183078 0.000000 0.000002 -0.000000 -0.000000 -0.000000 -0.000000 0.000000 -0.000000 0.000000 
24.424324 15.933784 -0.595110 -159.454375 -58.605184 175.873980 6.450230 -2.189579 -9.593309 -17.337376 -6.781901 -8.693497 -1.519073 18.006592 66.011316 -9.048408 6.046763 12.029882 -0.815418 5.552504 8.315190 1.606294 3.800302 -7.294608 22.350691 3.623162 -34.389245 -5.702528 -9.161311 33.789376 2.534711 6.327785 -11.383107 -5.264844 0.321265 -16.544468 -3.161292 -1.798621 22.362643 4.720810 -1.524558 -8.181971 8.355455 -3.592386 0.213449 -2.139254 1.187134 -11.340365 8.307171 0.841840 7.654314 -10.284921 9.390249 13.746446 15.223483 1.300274 1.588459 -84.770493 -21.353648 44.821827 131.909236 -62.669743 -114.697716 -10.174560 10.969574 -2.403684 -0.000001 -0.000002 -0.000000 -0.000000 0.000000 -0.000000 0.000000 0.000000 0.000000 -11.920768 5.913615 2.125257 73.988299 27.135663 7.782394 -50.053616 86.876609 -31.876957 2.629727 3.150601 0.556873 0.000000 0.000002 -0.000000 0.000000 0.000000 0.000000 -0.000000 -0.000000 0.000000 
24.248348 15.868018 -0.730833 -160.139325 -58.543372 176.085034 5.862256 -2.355471 -9.414380 -16.385893 -7.164607 -10.563153 -0.904542 19.320083 69.229453 -8.945708 5.509666 12.272447 -0.899602 5.676799 7.000885 3.007240 4.043010 -7.256256 19.703888 4.829342 -34.701775 -4.591740 -9.211016 38.100579 0.553365 3.288777 -12.463154 -6.795504 3.149538 -17.042928 -3.368911 -1.895790 22.395936 4.712125 -1.065863 -8.182886 7.851584 -3.006854 -0.124062 -1.793244 1.057280 -10.825959 8.209615 0.666404 7.619962 -11.459701 9.113685 13.420831 15.308371 0.882826 1.546103 -84.990220 -20.088855 44.283735 130.858210 -63.317870 -114.307680 -8.928892 10.978369 -2.299352 -0.000001 -0.000002 -0.000000 0.000000 0.000000 0.000000 0.000000 -0.000000 -0.000000 -11.331960 6.067051 2.354169 73.555993 27.897208 8.467828 -46.417252 85.986180 -28.490523 2.750852 3.412270 0.605354 0.000000 0.000002 -0.000000 0.000000 0.000000 0.000000 0.000000 0.000000 0.000000 
24.074925 15.790541 -0.858251 -160.919924 -58.325405 176.273133 5.360702 -2.602381 -9.204949 -15.652037 -6.859597 -12.529698 0.824298 20.416124 72.598463 -9.506017 4.444267 12.920781 -0.783019 4.669324 5.969624 3.841112 4.547094 -7.483336 17.339728 6.158388 -34.359797 -2.620046 -9.303390 41.981230 -3.278193 -0.807533 -13.155118 -6.586794 2.452088 -17.398439 -3.548418 -2.095668 22.496379 4.657413 -0.767094 -8.123381 7.782984 -2.681729 0.420342 -1.945977 1.103859 -11.153895 8.126428 0.731639 7.601441 -11.301653 8.668157 12.240138 14.967124 1.591453 1.626006 -85.239243 -19.659762 43.390721 130.463495 -64.316733 -116.023979 -8.082790 12.075749 -2.464456 -0.000001 -0.000002 -0.000000 -0.000000 0.000000 0.000000 -0.000000 -0.000000 -0.000000 -11.408852 6.325978 2.455847 73.108605 29.600979 8.881624 -40.723529 85.286052 -23.472340 2.371635 3.432758 0.591274 0.000000 0.000002 -0.000000 -0.000000 0.000000 -0.000000 0.000000 0.000000 0.000000 
23.892342 15.710661 -0.990589 -161.090244 -58.248198 175.860287 4.998172 -2.751519 -8.964178 -14.782431 -7.025664 -14.235713 1.549788 21.296234 75.841300 -9.653803 4.187360 13.165203 -0.599639 3.401357 5.019485 4.856554 4.714739 -7.471565 15.608132 7.084261 -34.240378 -0.663091 -9.067526 45.641232 -7.397679 -4.697043 -12.927498 -5.317227 0.185153 -16.901091 -3.342136 -2.235427 22.551750 4.538246 -0.142098 -8.036029 7.309615 -2.086498 0.970906 -1.753814 1.070603 -11.490088 8.008883 0.677284 7.548006 -11.594274 8.448563 12.580926 14.957890 1.634586 1.852127 -85.457059 -19.607487 42.092921 130.765375 -65.749646 -118.308029 -8.135643 13.118868 -2.695858 -0.000001 -0.000002 -0.000000 0.000000 0.000000 -0.000000 0.000000 0.000000 0.000000 -10.976980 5.748583 2.723836 72.557699 31.292767 9.273928 -35.915967 84.521195 -19.192394 2.198487 3.631681 0.615158 0.000000 0.000002 -0.000000 -0.000000 0.000000 -0.000000 -0.000000 0.000000 0.000000 
23.715916 15.636186 -1.115168 -160.719333 -58.442624 174.828911 5.075597 -2.705076 -8.943903 -14.287034 -7.075397 -16.072817 3.394053 21.945586 78.759205 -9.506481 3.173989 13.173318 -0.570664 3.207793 4.842485 5.155442 4.807551 -7.545113 14.957988 7.400981 -33.117065 1.283683 -9.249277 47.316144 -11.260291 -8.498229 -13.021867 -5.241155 -1.800861 -19.733751 -3.036953 -2.440845 22.865463 4.440864 0.319264 -7.861707 7.164930 -1.752443 1.820604 -1.804965 1.115634 -12.001164 7.913363 0.715633 7.303467 -11.491007 7.965610 12.505484 14.884535 2.034122 1.853495 -85.771320 -19.614493 40.734526 130.526406 -66.761387 -119.890549 -6.778516 13.799921 -2.693555 -0.000001 -0.000002 -0.000000 0.000000 0.000000 0.000000 -0.000000 0.000000 -0.000000 -11.021599 5.357577 2.899363 72.569333 33.560491 9.368350 -32.847359 84.225570 -16.641941 3.142262 3.727481 0.676494 0.000000 0.000002 -0.000000 0.000000 0.000000 0.000000 -0.000000 0.000000 -0.000000 
23.535736 15.561411 -1.237581 -160.832467 -58.433613 174.302852 4.962388 -2.638137 -8.807857 -13.764448 -7.056148 -18.140527 4.757516 22.464963 81.550045 -9.116181 2.559890 12.952365 -0.482604 2.581593 3.835388 5.240548 4.898039 -7.755391 14.889716 7.067764 -32.070112 1.652549 -9.903863 48.633014 -13.583180 -10.072115 -12.767884 -5.150182 -3.783633 -22.850616 -3.009223 -2.677169 23.047246 4.394578 0.512095 -7.664304 6.367980 -1.476065 2.285757 -1.188716 1.230817 -12.012714 7.844855 0.694700 7.080555 -11.816778 7.964275 12.062168 15.471026 2.643404 1.811546 -86.071299 -18.949387 38.874031 130.631762 -67.987499 -121.311900 -6.369523 13.993799 -2.687424 -0.000001 -0.000002 -0.000000 0.000000 0.000000 0.000000 0.000000 0.000000 -0.000000 -10.405408 5.728371 3.311480 72.511102 35.712122 9.230716 -28.451637 83.976639 -11.903861 2.709186 4.794798 0.831236 0.000000 0.000002 -0.000000 0.000000 0.000000 0.000000 0.000000 -0.000000 0.000000 
23.351051 15.501051 -1.373905 -161.390642 -58.617699 174.502163 4.544798 -2.767562 -8.661402 -13.034049 -7.079468 -20.530290 5.660549 22.860617 84.127804 -8.660011 2.289499 12.716702 -0.477981 2.314909 1.634584 5.574587 4.965129 -7.812702 14.426242 6.395016 -31.659366 0.696732 -11.208051 49.751882 -14.301486 -9.786792 -12.554556 -5.246850 -4.612442 -24.709253 -3.322017 -2.728978 22.869516 4.456034 0.647207 -7.527534 6.418296 -1.249448 2.948631 -1.294682 1.248138 -12.245668 7.766713 0.739888 6.851979 -12.189310 7.907534 12.039671 15.055515 3.199188 1.810360 -86.255597 -18.617069 36.580593 131.620394 -69.716129 -125.109110 -5.352731 15.399314 -2.843868 -0.000001 -0.000002 -0.000000 -0.000000 -0.000000 -0.000000 -0.000000 0.000000 0.000000 -10.256142 5.893845 3.487085 72.193378 37.747978 9.255332 -25.570236 83.546311 -9.107262 2.255945 5.182530 0.867151 0.000000 0.000002 -0.000000 -0.000000 -0.000000 -0.000000 0.000000 0.000000 -0.000000 
23.168318 15.450601 -1.502102 -162.014919 -58.711954 174.746211 3.863406 -3.032287 -8.515436 -12.031352 -6.851257 -22.917845 7.341874 23.174741 86.609041 -8.715683 1.584569 12.921487 -0.739501 3.333126 -0.089188 6.142599 5.132038 -8.025254 13.862434 5.246505 -31.114892 -1.535337 -13.038228 50.569996 -14.160510 -7.722790 -12.164432 -5.387723 -4.623125 -25.190853 -3.665735 -2.812294 22.851203 4.571701 0.623348 -7.453909 6.192136 -1.120956 3.476250 -1.124659 1.304429 -12.354932 7.700424 0.759469 6.620405 -12.369154 7.841299 11.791312 14.763690 4.015974 1.763093 -86.374798 -18.070331 34.540236 132.046802 -71.223236 -127.356544 -4.044612 15.972980 -2.784734 -0.000001 -0.000002 -0.000000 -0.000000 0.000000 0.000000 0.000000 0.000000 0.000000 -9.749422 6.562676 3.686700 71.628967 39.755222 9.221098 -23.229931 83.026879 -6.689661 1.240250 5.571251 0.863525 0.000000 0.000002 -0.000000 0.000000 -0.000000 0.000000 0.000000 0.000000 -0.000000 
22.980030 15.407808 -1.622868 -162.588591 -59.130478 174.896178 3.829310 -3.024156 -8.510238 -11.961003 -6.829855 -25.133698 8.760123 23.352875 87.969141 -8.428676 0.918532 12.337703 -0.717713 2.981920 -2.176939 5.966193 5.365235 -8.232005 13.931717 4.460511 -30.045197 -3.166305 -14.073211 51.009840 -14.591058 -6.867810 -13.142187 -7.179603 -2.293214 -26.491968 -3.587902 -3.009943 23.028871 4.488913 0.559940 -7.402734 5.902850 -1.125599 3.561201 -1.156461 1.337568 -12.287981 7.645722 0.763722 6.594919 -12.043928 7.551393 11.773449 14.683694 4.565258 1.830656 -86.484920 -17.152854 33.360535 132.239263 -71.566394 -127.679840 -4.070126 15.672025 -2.733556 -0.000001 -0.000002 -0.000000 0.000000 -0.000000 0.000000 0.000000 -0.000000 -0.000000 -9.876088 7.012240 3.882840 71.730483 41.400859 9.484613 -22.450781 82.998447 -5.768832 1.007985 5.894743 0.896844 0.000000 0.000002 -0.000000 -0.000000 0.000000 0.000000 -0.000000 0.000000 0.000000 
